# xmcd
#
# Track frame offsets:
#	150
#	27180
#	47139
#	66519
#	87096
#	105320
#	132221
#	149036
#	166748
#	188332
#	202694
#	226932
#	247608
#
# Disc length: 3515 seconds
#
# Revision: 2
# Processed by: cddbd v1.5.1PL0 Copyright (c) Steve Scherf et al.
# Submitted via: dBpowerAMP V4.0
#
DISCID=9c0db90d
DTITLE=PopChill CD1 - Clasicos del pop en chill out
DYEAR=2004
DGENRE=New Age
TTITLE0=Sexual Healing
TTITLE1=One
TTITLE2=All Around the World
TTITLE3=Whole Lotta Love
TTITLE4=Close to Me
TTITLE5=Billie Jean
TTITLE6=No More I Love You's
TTITLE7=Get Up (Sex Machine)
TTITLE8=Is This Love?
TTITLE9=China Girl
TTITLE10=I Just Called to Say I Love You
TTITLE11=Angie
TTITLE12=China Girl (School Girl Mix)
EXTD=Clásicos del pop en chill out (Vale Music)
EXTT0=
EXTT1=
EXTT2=
EXTT3=
EXTT4=
EXTT5=
EXTT6=
EXTT7=
EXTT8=
EXTT9=
EXTT10=
EXTT11=
EXTT12=
PLAYORDER=
